<svg width="50" height="49" viewBox="0 0 50 49" fill="none" xmlns="http://www.w3.org/2000/svg">
<path d="M15.8959 32.8334C15.4792 32.8334 15.1146 32.6772 14.8021 32.3647C14.4896 32.0522 14.3334 31.6876 14.3334 31.2709V17.7292C14.3334 17.3126 14.4896 16.948 14.8021 16.6355C15.1146 16.323 15.4792 16.1667 15.8959 16.1667H33.6042C34.0209 16.1667 34.3855 16.323 34.698 16.6355C35.0105 16.948 35.1667 17.3126 35.1667 17.7292V31.2709C35.1667 31.6876 35.0105 32.0522 34.698 32.3647C34.3855 32.6772 34.0209 32.8334 33.6042 32.8334H15.8959ZM15.8959 31.2709H27.9011V27.0261H15.8959V31.2709ZM29.4636 31.2709H33.6042V21.2188H29.4636V31.2709ZM15.8959 25.4636H27.9011V21.2188H15.8959V25.4636Z" fill="url(#paint0_linear_101_9)"/>
<rect x="0.75" y="0.5" width="48" height="48" rx="24" stroke="url(#paint1_linear_101_9)"/>
<defs>
<linearGradient id="paint0_linear_101_9" x1="24.75" y1="16.1667" x2="24.75" y2="32.8334" gradientUnits="userSpaceOnUse">
<stop stop-color="#FFBF00"/>
<stop offset="1" stop-color="#F2A50C"/>
</linearGradient>
<linearGradient id="paint1_linear_101_9" x1="24.75" y1="0" x2="24.75" y2="49" gradientUnits="userSpaceOnUse">
<stop stop-color="#FFBF00"/>
<stop offset="1" stop-color="#F2A50C"/>
</linearGradient>
</defs>
</svg>
