<svg width="50" height="49" viewBox="0 0 50 49" fill="none" xmlns="http://www.w3.org/2000/svg" xmlns:xlink="http://www.w3.org/1999/xlink">
<path d="M21.9362 30.048H22.9362V29.9997L22.9315 29.9516L21.9362 30.048ZM22.6137 27.338L23.4762 27.8441L24.3238 26.3995L22.65 26.3386L22.6137 27.338ZM18.0971 17.5143L18.8319 18.1926L19.2036 17.7899L19.0641 17.2598L18.0971 17.5143ZM18.21 14.0139L18.1333 13.0169L17.5688 13.0603L17.3155 13.5667L18.21 14.0139ZM21.9362 15.256L21.4983 16.1551L21.7911 16.2976L22.1117 16.2405L21.9362 15.256ZM28.2595 15.256L28.1057 16.2441L28.4613 16.2995L28.7707 16.1155L28.2595 15.256ZM31.7598 14.0139L32.6695 13.5986L32.3866 12.979L31.7064 13.0154L31.7598 14.0139ZM31.9857 17.5143L31.035 17.2041L30.8642 17.7276L31.2153 18.1519L31.9857 17.5143ZM27.469 27.338L27.4283 26.3388L25.7821 26.406L26.6015 27.8353L27.469 27.338ZM15.5947 25.7779C15.0449 25.7256 14.5568 26.1289 14.5045 26.6787C14.4522 27.2285 14.8555 27.7166 15.4053 27.7689L15.5947 25.7779ZM22.9362 34V30.048H20.9362V34H22.9362ZM18.0971 17.5143C19.0641 17.2598 19.0642 17.26 19.0642 17.2602C19.0643 17.2603 19.0643 17.2605 19.0643 17.2606C19.0644 17.2608 19.0644 17.261 19.0645 17.2612C19.0646 17.2615 19.0646 17.2617 19.0646 17.2617C19.0647 17.2618 19.0646 17.2615 19.0643 17.2606C19.0639 17.2589 19.063 17.2552 19.0616 17.2497C19.0589 17.2387 19.0544 17.2203 19.0486 17.1951C19.0371 17.1449 19.0203 17.0682 19.0018 16.9708C18.9644 16.7748 18.921 16.5011 18.8963 16.1925C18.8437 15.5349 18.8914 14.8872 19.1044 14.4612L17.3155 13.5667C16.8511 14.4956 16.8423 15.5982 16.9026 16.352C16.9344 16.7492 16.9897 17.0965 17.0371 17.345C17.0609 17.4699 17.083 17.5715 17.0996 17.6438C17.1079 17.68 17.1149 17.709 17.1202 17.7301C17.1228 17.7406 17.1249 17.7492 17.1266 17.7556C17.1274 17.7589 17.1281 17.7616 17.1287 17.7638C17.129 17.7649 17.1292 17.7659 17.1294 17.7667C17.1295 17.7671 17.1296 17.7675 17.1297 17.7679C17.1298 17.768 17.1298 17.7683 17.1299 17.7684C17.1299 17.7686 17.13 17.7688 18.0971 17.5143ZM18.2867 15.011C19.4032 14.9251 19.7328 15.2952 21.4983 16.1551L22.374 14.357C20.987 13.6814 19.9525 12.8769 18.1333 13.0169L18.2867 15.011ZM22.1117 16.2405C24.4493 15.8237 25.7198 15.8728 28.1057 16.2441L28.4132 14.2679C25.8604 13.8706 24.3618 13.8078 21.7607 14.2715L22.1117 16.2405ZM28.7707 16.1155C30.0938 15.3285 30.6983 15.0722 31.8133 15.0125L31.7064 13.0154C30.1205 13.1002 29.186 13.5413 27.7482 14.3966L28.7707 16.1155ZM30.8502 14.4293C31.1228 15.0265 31.2381 15.4465 31.2627 15.8259C31.287 16.2021 31.2273 16.6148 31.035 17.2041L32.9363 17.8245C33.1765 17.0884 33.3047 16.4098 33.2585 15.6966C33.2124 14.9866 32.9985 14.3191 32.6695 13.5986L30.8502 14.4293ZM26.6015 27.8353C27.1957 28.8718 27.3107 29.6766 27.3055 30.5644C27.3027 31.0506 27.2658 31.5106 27.2389 32.1155C27.2131 32.6966 27.2015 33.3459 27.2629 34.083L29.256 33.917C29.2045 33.2991 29.213 32.744 29.2369 32.2042C29.2599 31.6882 29.3024 31.1107 29.3055 30.576C29.3122 29.4219 29.1449 28.2506 28.3366 26.8406L26.6015 27.8353ZM17.3623 16.836C15.7275 18.6071 15.2703 21.401 16.0622 23.7606C16.8827 26.2052 19.0448 28.2089 22.5773 28.3373L22.65 26.3386C19.9722 26.2413 18.521 24.801 17.9583 23.1242C17.367 21.3623 17.7567 19.3574 18.8319 18.1926L17.3623 16.836ZM31.2153 18.1519C32.3072 19.4713 32.5512 21.4785 31.8851 23.2104C31.2375 24.894 29.7574 26.2437 27.4283 26.3388L27.5098 28.3371C30.7136 28.2064 32.8467 26.2815 33.7518 23.9284C34.6382 21.6236 34.3741 18.8319 32.7561 16.8768L31.2153 18.1519ZM21.6391 29.0931C20.4434 29.4651 19.8934 29.4054 19.6457 29.3139C19.4426 29.2389 19.2878 29.0886 19.061 28.6631C18.8756 28.3153 18.5601 27.5631 18.0918 27.0084C17.5421 26.3573 16.7597 25.8887 15.5947 25.7779L15.4053 27.7689C16.0615 27.8313 16.359 28.0563 16.5636 28.2986C16.8497 28.6374 16.9628 28.9786 17.2961 29.6038C17.5878 30.1512 18.0416 30.8534 18.9525 31.19C19.8189 31.5101 20.8884 31.4212 22.2333 31.0028L21.6391 29.0931ZM21.7512 26.8319C21.36 27.4985 21.1136 28.0567 20.9932 28.6117C20.8709 29.1753 20.8945 29.6656 20.9408 30.1443L22.9315 29.9516C22.8919 29.5419 22.8912 29.2959 22.9477 29.0359C23.006 28.7673 23.1413 28.4147 23.4762 27.8441L21.7512 26.8319Z" fill="url(#paint0_linear_14_1483)"/>
<rect x="1" y="0.5" width="48" height="48" rx="24" stroke="url(#paint1_linear_14_1483)"/>
<defs>
<linearGradient id="paint0_linear_14_1483" x1="24.3767" y1="14" x2="24.3767" y2="34" gradientUnits="userSpaceOnUse">
<stop stop-color="#FFBF00"/>
<stop offset="1" stop-color="#F2A50C"/>
</linearGradient>
<linearGradient id="paint1_linear_14_1483" x1="25" y1="0" x2="25" y2="49" gradientUnits="userSpaceOnUse">
<stop stop-color="#FFBF00"/>
<stop offset="1" stop-color="#F2A50C"/>
</linearGradient>
</defs>
</svg>
