<svg width="50" height="49" viewBox="0 0 50 49" fill="none" xmlns="http://www.w3.org/2000/svg">
<g clip-path="url(#clip0_14_1479)">
<path d="M25 12C21.6041 12 21.1802 12.0156 19.8469 12.075C18.5156 12.1375 17.6094 12.3469 16.8125 12.6562C15.9906 12.975 15.2927 13.4031 14.5979 14.0979C13.9031 14.7927 13.474 15.4896 13.1562 16.3125C12.8469 17.1094 12.6365 18.0156 12.575 19.3469C12.5125 20.6802 12.5 21.1041 12.5 24.5C12.5 27.8959 12.5156 28.3198 12.575 29.6531C12.6375 30.9834 12.8469 31.8906 13.1562 32.6875C13.475 33.5084 13.9031 34.2073 14.5979 34.9021C15.2927 35.5959 15.9896 36.026 16.8125 36.3438C17.6104 36.6521 18.5167 36.8635 19.8469 36.925C21.1802 36.9875 21.6041 37 25 37C28.3959 37 28.8198 36.9844 30.1531 36.925C31.4834 36.8625 32.3906 36.6521 33.1875 36.3438C34.0084 36.025 34.7073 35.5959 35.4021 34.9021C36.0959 34.2073 36.526 33.5115 36.8438 32.6875C37.1521 31.8906 37.3635 30.9834 37.425 29.6531C37.4875 28.3198 37.5 27.8959 37.5 24.5C37.5 21.1041 37.4844 20.6802 37.425 19.3469C37.3625 18.0167 37.1521 17.1083 36.8438 16.3125C36.525 15.4906 36.0959 14.7927 35.4021 14.0979C34.7073 13.4031 34.0115 12.974 33.1875 12.6562C32.3906 12.3469 31.4834 12.1365 30.1531 12.075C28.8198 12.0125 28.3959 12 25 12ZM25 14.25C28.3365 14.25 28.7344 14.2667 30.0521 14.324C31.2709 14.3812 31.9323 14.5833 32.3719 14.7563C32.9573 14.9823 33.3719 15.2531 33.8115 15.6896C34.2479 16.1271 34.5188 16.5427 34.7448 17.1281C34.9156 17.5677 35.1198 18.2292 35.175 19.4479C35.2344 20.7666 35.2479 21.1625 35.2479 24.5C35.2479 27.8375 35.2323 28.2344 35.1709 29.5521C35.1073 30.7709 34.9041 31.4323 34.7323 31.8719C34.499 32.4573 34.2334 32.8719 33.7959 33.3115C33.3594 33.7479 32.9375 34.0188 32.3584 34.2448C31.9209 34.4156 31.249 34.6198 30.0302 34.675C28.7031 34.7344 28.3125 34.7479 24.9688 34.7479C21.624 34.7479 21.2334 34.7323 19.9073 34.6709C18.6875 34.6073 18.0156 34.4041 17.5781 34.2323C16.9854 33.999 16.5781 33.7334 16.1417 33.2959C15.7031 32.8594 15.4229 32.4375 15.2042 31.8584C15.0323 31.4209 14.8302 30.749 14.7667 29.5302C14.7198 28.2177 14.7031 27.8125 14.7031 24.4844C14.7031 21.1552 14.7198 20.749 14.7667 19.4208C14.8302 18.2021 15.0323 17.5312 15.2042 17.0938C15.4229 16.5 15.7031 16.0938 16.1417 15.6552C16.5781 15.2188 16.9854 14.9375 17.5781 14.7198C18.0156 14.5469 18.6729 14.3438 19.8917 14.2812C21.2198 14.2344 21.6104 14.2188 24.9531 14.2188L25 14.25ZM25 18.0812C21.4531 18.0812 18.5812 20.9563 18.5812 24.5C18.5812 28.0469 21.4563 30.9187 25 30.9187C28.5469 30.9187 31.4187 28.0438 31.4187 24.5C31.4187 20.9531 28.5438 18.0812 25 18.0812ZM25 28.6666C22.6979 28.6666 20.8334 26.8021 20.8334 24.5C20.8334 22.1979 22.6979 20.3334 25 20.3334C27.3021 20.3334 29.1666 22.1979 29.1666 24.5C29.1666 26.8021 27.3021 28.6666 25 28.6666ZM33.1729 17.8281C33.1729 18.6562 32.5 19.3281 31.6729 19.3281C30.8448 19.3281 30.1729 18.6552 30.1729 17.8281C30.1729 17.001 30.8459 16.3292 31.6729 16.3292C32.499 16.3281 33.1729 17.001 33.1729 17.8281Z" fill="url(#paint0_linear_14_1479)"/>
</g>
<rect x="1" y="0.5" width="48" height="48" rx="24" stroke="url(#paint1_linear_14_1479)"/>
<defs>
<linearGradient id="paint0_linear_14_1479" x1="25" y1="12" x2="25" y2="37" gradientUnits="userSpaceOnUse">
<stop stop-color="#FFBF00"/>
<stop offset="1" stop-color="#F2A50C"/>
</linearGradient>
<linearGradient id="paint1_linear_14_1479" x1="25" y1="0" x2="25" y2="49" gradientUnits="userSpaceOnUse">
<stop stop-color="#FFBF00"/>
<stop offset="1" stop-color="#F2A50C"/>
</linearGradient>
<clipPath id="clip0_14_1479">
<rect width="25" height="25" fill="white" transform="translate(12.5 12)"/>
</clipPath>
</defs>
</svg>
