<svg width="50" height="49" viewBox="0 0 50 49" fill="none" xmlns="http://www.w3.org/2000/svg">
<path d="M15.9489 33V19.9091H19.5795V33H15.9489ZM17.7727 18.2216C17.233 18.2216 16.7699 18.0426 16.3835 17.6847C16.0028 17.321 15.8125 16.8864 15.8125 16.3807C15.8125 15.8807 16.0028 15.4517 16.3835 15.0938C16.7699 14.7301 17.233 14.5483 17.7727 14.5483C18.3125 14.5483 18.7727 14.7301 19.1534 15.0938C19.5398 15.4517 19.733 15.8807 19.733 16.3807C19.733 16.8864 19.5398 17.321 19.1534 17.6847C18.7727 18.0426 18.3125 18.2216 17.7727 18.2216ZM26.1186 25.4318V33H22.4879V19.9091H25.9482V22.2188H26.1016C26.3913 21.4574 26.8771 20.8551 27.5589 20.4119C28.2408 19.9631 29.0675 19.7386 30.0391 19.7386C30.9482 19.7386 31.7408 19.9375 32.4169 20.3352C33.093 20.733 33.6186 21.3011 33.9936 22.0398C34.3686 22.7727 34.5561 23.6477 34.5561 24.6648V33H30.9254V25.3125C30.9311 24.5114 30.7266 23.8864 30.3118 23.4375C29.897 22.983 29.326 22.7557 28.5987 22.7557C28.1101 22.7557 27.6783 22.8608 27.3033 23.071C26.9339 23.2812 26.6442 23.5881 26.4339 23.9915C26.2294 24.3892 26.1243 24.8693 26.1186 25.4318Z" fill="url(#paint0_linear_141_8)"/>
<rect x="1" y="0.5" width="48" height="48" rx="24" stroke="url(#paint1_linear_141_8)"/>
<defs>
<linearGradient id="paint0_linear_141_8" x1="25.5" y1="10" x2="25.5" y2="39" gradientUnits="userSpaceOnUse">
<stop stop-color="#FFBF00"/>
<stop offset="1" stop-color="#F2A50C"/>
</linearGradient>
<linearGradient id="paint1_linear_141_8" x1="25" y1="0" x2="25" y2="49" gradientUnits="userSpaceOnUse">
<stop stop-color="#FFBF00"/>
<stop offset="1" stop-color="#F2A50C"/>
</linearGradient>
</defs>
</svg>
